<mxfile host="app.diagrams.net" modified="2023-11-25T12:13:03.048Z" agent="Mozilla/5.0 (Windows NT 10.0; Win64; x64) AppleWebKit/537.36 (KHTML, like Gecko) Chrome/121.0.0.0 Safari/537.36 Edg/121.0.0.0" etag="EaGm7xSyYBxx3Uzv-BEg" version="22.1.4" type="github">
  <diagram name="第 1 页" id="Ca8JibwiIeJ3WIZrLWk-">
    <mxGraphModel dx="1042" dy="581" grid="1" gridSize="10" guides="1" tooltips="1" connect="1" arrows="1" fold="1" page="1" pageScale="1" pageWidth="827" pageHeight="1169" math="0" shadow="0">
      <root>
        <mxCell id="0" />
        <mxCell id="1" parent="0" />
        <mxCell id="x6JHzJ7l4RsxqSKgYVP_-5" value="" style="edgeStyle=orthogonalEdgeStyle;rounded=0;orthogonalLoop=1;jettySize=auto;html=1;" parent="1" source="x6JHzJ7l4RsxqSKgYVP_-1" target="x6JHzJ7l4RsxqSKgYVP_-4" edge="1">
          <mxGeometry relative="1" as="geometry" />
        </mxCell>
        <mxCell id="x6JHzJ7l4RsxqSKgYVP_-9" value="" style="edgeStyle=orthogonalEdgeStyle;rounded=0;orthogonalLoop=1;jettySize=auto;html=1;" parent="1" source="x6JHzJ7l4RsxqSKgYVP_-1" target="x6JHzJ7l4RsxqSKgYVP_-8" edge="1">
          <mxGeometry relative="1" as="geometry" />
        </mxCell>
        <mxCell id="x6JHzJ7l4RsxqSKgYVP_-10" value="USART" style="edgeLabel;html=1;align=center;verticalAlign=middle;resizable=0;points=[];" parent="x6JHzJ7l4RsxqSKgYVP_-9" vertex="1" connectable="0">
          <mxGeometry x="0.025" y="1" relative="1" as="geometry">
            <mxPoint as="offset" />
          </mxGeometry>
        </mxCell>
        <mxCell id="x6JHzJ7l4RsxqSKgYVP_-1" value="北斗定位模块" style="rounded=0;whiteSpace=wrap;html=1;" parent="1" vertex="1">
          <mxGeometry x="110" y="160" width="120" height="60" as="geometry" />
        </mxCell>
        <mxCell id="x6JHzJ7l4RsxqSKgYVP_-7" style="edgeStyle=orthogonalEdgeStyle;rounded=0;orthogonalLoop=1;jettySize=auto;html=1;entryX=1;entryY=0.5;entryDx=0;entryDy=0;" parent="1" source="x6JHzJ7l4RsxqSKgYVP_-4" target="x6JHzJ7l4RsxqSKgYVP_-1" edge="1">
          <mxGeometry relative="1" as="geometry" />
        </mxCell>
        <mxCell id="x6JHzJ7l4RsxqSKgYVP_-14" value="天线" style="edgeLabel;html=1;align=center;verticalAlign=middle;resizable=0;points=[];" parent="x6JHzJ7l4RsxqSKgYVP_-7" vertex="1" connectable="0">
          <mxGeometry x="-0.02" y="2" relative="1" as="geometry">
            <mxPoint as="offset" />
          </mxGeometry>
        </mxCell>
        <mxCell id="x6JHzJ7l4RsxqSKgYVP_-4" value="北斗卫星" style="whiteSpace=wrap;html=1;rounded=0;" parent="1" vertex="1">
          <mxGeometry x="310" y="160" width="120" height="60" as="geometry" />
        </mxCell>
        <mxCell id="x6JHzJ7l4RsxqSKgYVP_-16" value="" style="edgeStyle=orthogonalEdgeStyle;rounded=0;orthogonalLoop=1;jettySize=auto;html=1;" parent="1" source="x6JHzJ7l4RsxqSKgYVP_-8" target="x6JHzJ7l4RsxqSKgYVP_-15" edge="1">
          <mxGeometry relative="1" as="geometry" />
        </mxCell>
        <mxCell id="x6JHzJ7l4RsxqSKgYVP_-8" value="STM32F407" style="whiteSpace=wrap;html=1;rounded=0;" parent="1" vertex="1">
          <mxGeometry x="110" y="260" width="120" height="60" as="geometry" />
        </mxCell>
        <mxCell id="x6JHzJ7l4RsxqSKgYVP_-19" value="" style="edgeStyle=orthogonalEdgeStyle;rounded=0;orthogonalLoop=1;jettySize=auto;html=1;" parent="1" source="x6JHzJ7l4RsxqSKgYVP_-15" target="x6JHzJ7l4RsxqSKgYVP_-18" edge="1">
          <mxGeometry relative="1" as="geometry" />
        </mxCell>
        <mxCell id="x6JHzJ7l4RsxqSKgYVP_-22" style="edgeStyle=orthogonalEdgeStyle;rounded=0;orthogonalLoop=1;jettySize=auto;html=1;exitX=0.5;exitY=0;exitDx=0;exitDy=0;entryX=0.5;entryY=1;entryDx=0;entryDy=0;" parent="1" source="x6JHzJ7l4RsxqSKgYVP_-15" target="x6JHzJ7l4RsxqSKgYVP_-8" edge="1">
          <mxGeometry relative="1" as="geometry" />
        </mxCell>
        <mxCell id="x6JHzJ7l4RsxqSKgYVP_-28" value="USART" style="edgeLabel;html=1;align=center;verticalAlign=middle;resizable=0;points=[];" parent="x6JHzJ7l4RsxqSKgYVP_-22" vertex="1" connectable="0">
          <mxGeometry x="0.1" y="-1" relative="1" as="geometry">
            <mxPoint as="offset" />
          </mxGeometry>
        </mxCell>
        <mxCell id="x6JHzJ7l4RsxqSKgYVP_-15" value="ESP8266" style="whiteSpace=wrap;html=1;rounded=0;" parent="1" vertex="1">
          <mxGeometry x="110" y="360" width="120" height="60" as="geometry" />
        </mxCell>
        <mxCell id="x6JHzJ7l4RsxqSKgYVP_-21" style="edgeStyle=orthogonalEdgeStyle;rounded=0;orthogonalLoop=1;jettySize=auto;html=1;exitX=0.5;exitY=0;exitDx=0;exitDy=0;entryX=0.5;entryY=1;entryDx=0;entryDy=0;" parent="1" source="x6JHzJ7l4RsxqSKgYVP_-18" target="x6JHzJ7l4RsxqSKgYVP_-15" edge="1">
          <mxGeometry relative="1" as="geometry" />
        </mxCell>
        <mxCell id="x6JHzJ7l4RsxqSKgYVP_-27" value="mqtt协议" style="edgeLabel;html=1;align=center;verticalAlign=middle;resizable=0;points=[];" parent="x6JHzJ7l4RsxqSKgYVP_-21" vertex="1" connectable="0">
          <mxGeometry x="-0.1" relative="1" as="geometry">
            <mxPoint as="offset" />
          </mxGeometry>
        </mxCell>
        <mxCell id="x6JHzJ7l4RsxqSKgYVP_-24" value="" style="edgeStyle=orthogonalEdgeStyle;rounded=0;orthogonalLoop=1;jettySize=auto;html=1;" parent="1" source="x6JHzJ7l4RsxqSKgYVP_-18" target="x6JHzJ7l4RsxqSKgYVP_-23" edge="1">
          <mxGeometry relative="1" as="geometry" />
        </mxCell>
        <mxCell id="x6JHzJ7l4RsxqSKgYVP_-18" value="物联网" style="whiteSpace=wrap;html=1;rounded=0;" parent="1" vertex="1">
          <mxGeometry x="110" y="460" width="120" height="60" as="geometry" />
        </mxCell>
        <mxCell id="x6JHzJ7l4RsxqSKgYVP_-25" style="edgeStyle=orthogonalEdgeStyle;rounded=0;orthogonalLoop=1;jettySize=auto;html=1;entryX=1;entryY=0.5;entryDx=0;entryDy=0;" parent="1" source="x6JHzJ7l4RsxqSKgYVP_-23" target="x6JHzJ7l4RsxqSKgYVP_-18" edge="1">
          <mxGeometry relative="1" as="geometry">
            <mxPoint x="240" y="490" as="targetPoint" />
          </mxGeometry>
        </mxCell>
        <mxCell id="x6JHzJ7l4RsxqSKgYVP_-26" value="mqtt协议" style="edgeLabel;html=1;align=center;verticalAlign=middle;resizable=0;points=[];" parent="x6JHzJ7l4RsxqSKgYVP_-25" vertex="1" connectable="0">
          <mxGeometry x="-0.02" y="3" relative="1" as="geometry">
            <mxPoint as="offset" />
          </mxGeometry>
        </mxCell>
        <mxCell id="x6JHzJ7l4RsxqSKgYVP_-23" value="遥控器" style="whiteSpace=wrap;html=1;rounded=0;" parent="1" vertex="1">
          <mxGeometry x="310" y="460" width="120" height="60" as="geometry" />
        </mxCell>
        <mxCell id="aIBkP3pShAXZRk7DMzCF-1" value="北斗定位功能" style="text;html=1;align=center;verticalAlign=middle;resizable=0;points=[];autosize=1;strokeColor=none;fillColor=none;" vertex="1" parent="1">
          <mxGeometry x="320" y="330" width="100" height="30" as="geometry" />
        </mxCell>
        <mxCell id="aIBkP3pShAXZRk7DMzCF-9" value="" style="edgeStyle=orthogonalEdgeStyle;rounded=0;orthogonalLoop=1;jettySize=auto;html=1;" edge="1" parent="1" source="aIBkP3pShAXZRk7DMzCF-2" target="aIBkP3pShAXZRk7DMzCF-8">
          <mxGeometry relative="1" as="geometry" />
        </mxCell>
        <mxCell id="aIBkP3pShAXZRk7DMzCF-2" value="收割开始" style="whiteSpace=wrap;html=1;" vertex="1" parent="1">
          <mxGeometry x="95" y="700" width="120" height="60" as="geometry" />
        </mxCell>
        <mxCell id="aIBkP3pShAXZRk7DMzCF-14" value="" style="edgeStyle=orthogonalEdgeStyle;rounded=0;orthogonalLoop=1;jettySize=auto;html=1;" edge="1" parent="1" source="aIBkP3pShAXZRk7DMzCF-8" target="aIBkP3pShAXZRk7DMzCF-13">
          <mxGeometry relative="1" as="geometry" />
        </mxCell>
        <mxCell id="aIBkP3pShAXZRk7DMzCF-15" value="正常" style="edgeLabel;html=1;align=center;verticalAlign=middle;resizable=0;points=[];" vertex="1" connectable="0" parent="aIBkP3pShAXZRk7DMzCF-14">
          <mxGeometry x="0.045" y="2" relative="1" as="geometry">
            <mxPoint as="offset" />
          </mxGeometry>
        </mxCell>
        <mxCell id="aIBkP3pShAXZRk7DMzCF-8" value="&lt;p style=&quot;line-height: 110%;&quot;&gt;&lt;font style=&quot;font-size: 10px;&quot;&gt;传感器和电压值&lt;/font&gt;&lt;/p&gt;" style="rhombus;whiteSpace=wrap;html=1;align=center;" vertex="1" parent="1">
          <mxGeometry x="85" y="840" width="140" height="50" as="geometry" />
        </mxCell>
        <mxCell id="aIBkP3pShAXZRk7DMzCF-17" value="" style="edgeStyle=orthogonalEdgeStyle;rounded=0;orthogonalLoop=1;jettySize=auto;html=1;" edge="1" parent="1" source="aIBkP3pShAXZRk7DMzCF-13" target="aIBkP3pShAXZRk7DMzCF-16">
          <mxGeometry relative="1" as="geometry" />
        </mxCell>
        <mxCell id="aIBkP3pShAXZRk7DMzCF-13" value="使能电机驱动，启动电机" style="whiteSpace=wrap;html=1;" vertex="1" parent="1">
          <mxGeometry x="300" y="835" width="120" height="60" as="geometry" />
        </mxCell>
        <mxCell id="aIBkP3pShAXZRk7DMzCF-16" value="使能电机驱动，启动电机" style="whiteSpace=wrap;html=1;" vertex="1" parent="1">
          <mxGeometry x="500" y="835" width="120" height="60" as="geometry" />
        </mxCell>
      </root>
    </mxGraphModel>
  </diagram>
</mxfile>
